{
 "cells": [
  {
   "cell_type": "code",
   "execution_count": 11,
   "metadata": {},
   "outputs": [
    {
     "name": "stderr",
     "output_type": "stream",
     "text": [
      "ffmpeg version N-115582-gd55f5cba7b-20240606 Copyright (c) 2000-2024 the FFmpeg developers\n",
      "  built with gcc 13.2.0 (crosstool-NG 1.26.0.65_ecc5e41)\n",
      "  configuration: --prefix=/ffbuild/prefix --pkg-config-flags=--static --pkg-config=pkg-config --cross-prefix=x86_64-w64-mingw32- --arch=x86_64 --target-os=mingw32 --enable-gpl --enable-version3 --disable-debug --disable-w32threads --enable-pthreads --enable-iconv --enable-libxml2 --enable-zlib --enable-libfreetype --enable-libfribidi --enable-gmp --enable-fontconfig --enable-libharfbuzz --enable-libvorbis --enable-opencl --disable-libpulse --enable-libvmaf --disable-libxcb --disable-xlib --enable-amf --enable-libaom --enable-libaribb24 --enable-avisynth --enable-chromaprint --enable-libdav1d --enable-libdavs2 --enable-libdvdread --enable-libdvdnav --disable-libfdk-aac --enable-ffnvcodec --enable-cuda-llvm --enable-frei0r --enable-libgme --enable-libkvazaar --enable-libaribcaption --enable-libass --enable-libbluray --enable-libjxl --enable-libmp3lame --enable-libopus --enable-librist --enable-libssh --enable-libtheora --enable-libvpx --enable-libwebp --enable-lv2 --enable-libvpl --enable-openal --enable-libopencore-amrnb --enable-libopencore-amrwb --enable-libopenh264 --enable-libopenjpeg --enable-libopenmpt --enable-librav1e --enable-librubberband --enable-schannel --enable-sdl2 --enable-libsoxr --enable-libsrt --enable-libsvtav1 --enable-libtwolame --enable-libuavs3d --disable-libdrm --enable-vaapi --enable-libvidstab --enable-vulkan --enable-libshaderc --enable-libplacebo --enable-libx264 --enable-libx265 --enable-libxavs2 --enable-libxvid --enable-libzimg --enable-libzvbi --extra-cflags=-DLIBTWOLAME_STATIC --extra-cxxflags= --extra-libs=-lgomp --extra-ldflags=-pthread --extra-ldexeflags= --cc=x86_64-w64-mingw32-gcc --cxx=x86_64-w64-mingw32-g++ --ar=x86_64-w64-mingw32-gcc-ar --ranlib=x86_64-w64-mingw32-gcc-ranlib --nm=x86_64-w64-mingw32-gcc-nm --extra-version=20240606\n",
      "  libavutil      59. 21.100 / 59. 21.100\n",
      "  libavcodec     61.  6.100 / 61.  6.100\n",
      "  libavformat    61.  3.104 / 61.  3.104\n",
      "  libavdevice    61.  2.100 / 61.  2.100\n",
      "  libavfilter    10.  2.102 / 10.  2.102\n",
      "  libswscale      8.  2.100 /  8.  2.100\n",
      "  libswresample   5.  2.100 /  5.  2.100\n",
      "  libpostproc    58.  2.100 / 58.  2.100\n",
      "Input #0, mov,mp4,m4a,3gp,3g2,mj2, from 'D:\\Akash\\Work\\AI\\Datasets\\v360\\_video/v360_test3/leftup.mp4':\n",
      "  Metadata:\n",
      "    major_brand     : isom\n",
      "    minor_version   : 512\n",
      "    compatible_brands: isomiso2avc1mp41\n",
      "    encoder         : Lavf59.33.100\n",
      "  Duration: 00:06:13.77, start: 0.000000, bitrate: 724 kb/s\n",
      "  Stream #0:0[0x1](und): Video: h264 (High) (avc1 / 0x31637661), yuv420p(progressive), 848x848, 679 kb/s, 29.97 fps, 29.97 tbr, 30k tbn (default)\n",
      "      Metadata:\n",
      "        handler_name    : VideoHandler\n",
      "        vendor_id       : [0][0][0][0]\n",
      "        encoder         : Lavc59.49.100 libx264\n",
      "  Stream #0:1[0x2](und): Audio: aac (LC) (mp4a / 0x6134706D), 8000 Hz, mono, fltp, 41 kb/s (default)\n",
      "      Metadata:\n",
      "        handler_name    : SoundHandler\n",
      "        vendor_id       : [0][0][0][0]\n",
      "Stream mapping:\n",
      "  Stream #0:0 -> #0:0 (h264 (native) -> h264 (libx264))\n",
      "  Stream #0:1 -> #0:1 (aac (native) -> aac (native))\n",
      "Press [q] to stop, [?] for help\n",
      "[aac @ 000001e4136c9d00] Too many bits 16384.000000 > 6144 per frame requested, clamping to max\n",
      "[libx264 @ 000001e411360880] using cpu capabilities: MMX2 SSE2Fast SSSE3 SSE4.2 AVX FMA3 BMI2 AVX2 AVX512\n",
      "[libx264 @ 000001e411360880] profile High, level 3.1, 4:2:0, 8-bit\n",
      "[libx264 @ 000001e411360880] 264 - core 164 - H.264/MPEG-4 AVC codec - Copyleft 2003-2024 - http://www.videolan.org/x264.html - options: cabac=1 ref=2 deblock=1:0:0 analyse=0x3:0x113 me=hex subme=6 psy=1 psy_rd=1.00:0.00 mixed_ref=1 me_range=16 chroma_me=1 trellis=1 8x8dct=1 cqm=0 deadzone=21,11 fast_pskip=1 chroma_qp_offset=-2 threads=24 lookahead_threads=4 sliced_threads=0 nr=0 decimate=1 interlaced=0 bluray_compat=0 constrained_intra=0 bframes=3 b_pyramid=2 b_adapt=1 b_bias=0 direct=1 weightb=1 open_gop=0 weightp=1 keyint=250 keyint_min=25 scenecut=40 intra_refresh=0 rc_lookahead=30 rc=crf mbtree=1 crf=23.0 qcomp=0.60 qpmin=0 qpmax=69 qpstep=4 ip_ratio=1.40 aq=1:1.00\n",
      "Output #0, mp4, to '\\\\10.0.20.60\\share\\AI\\data\\_test_data\\評価データ作成_202501\\定性評価\\fiftyone\\samples/v360_test3_leftup_000203_000206.mp4':\n",
      "  Metadata:\n",
      "    major_brand     : isom\n",
      "    minor_version   : 512\n",
      "    compatible_brands: isomiso2avc1mp41\n",
      "    encoder         : Lavf61.3.104\n",
      "  Stream #0:0(und): Video: h264 (avc1 / 0x31637661), yuv420p(progressive), 848x848, q=2-31, 29.97 fps, 30k tbn (default)\n",
      "      Metadata:\n",
      "        handler_name    : VideoHandler\n",
      "        vendor_id       : [0][0][0][0]\n",
      "        encoder         : Lavc61.6.100 libx264\n",
      "      Side data:\n",
      "        cpb: bitrate max/min/avg: 0/0/0 buffer size: 0 vbv_delay: N/A\n",
      "  Stream #0:1(und): Audio: aac (LC) (mp4a / 0x6134706D), 8000 Hz, mono, fltp, 48 kb/s (default)\n",
      "      Metadata:\n",
      "        handler_name    : SoundHandler\n",
      "        vendor_id       : [0][0][0][0]\n",
      "        encoder         : Lavc61.6.100 aac\n",
      "[out#0/mp4 @ 000001e411341040] video:228KiB audio:15KiB subtitle:0KiB other streams:0KiB global headers:0KiB muxing overhead: 1.142930%\n",
      "frame=   91 fps=0.0 q=-1.0 Lsize=     246KiB time=00:00:02.96 bitrate= 679.4kbits/s dup=1 drop=0 speed=10.2x    \n",
      "[libx264 @ 000001e411360880] frame I:1     Avg QP:18.76  size: 36760\n",
      "[libx264 @ 000001e411360880] frame P:41    Avg QP:19.90  size:  4204\n",
      "[libx264 @ 000001e411360880] frame B:49    Avg QP:23.38  size:   492\n",
      "[libx264 @ 000001e411360880] consecutive B-frames:  2.2% 72.5% 16.5%  8.8%\n",
      "[libx264 @ 000001e411360880] mb I  I16..4:  7.3% 80.3% 12.3%\n",
      "[libx264 @ 000001e411360880] mb P  I16..4:  0.6%  3.5%  0.1%  P16..4: 23.3%  4.9%  2.4%  0.0%  0.0%    skip:65.2%\n",
      "[libx264 @ 000001e411360880] mb B  I16..4:  0.1%  0.3%  0.0%  B16..8:  5.7%  0.4%  0.0%  direct: 1.4%  skip:92.1%  L0:24.9% L1:72.9% BI: 2.1%\n",
      "[libx264 @ 000001e411360880] 8x8 transform intra:80.5% inter:83.8%\n",
      "[libx264 @ 000001e411360880] coded y,uvDC,uvAC intra: 64.4% 59.3% 11.7% inter: 5.0% 8.2% 0.0%\n",
      "[libx264 @ 000001e411360880] i16 v,h,dc,p: 19% 30% 23% 28%\n",
      "[libx264 @ 000001e411360880] i8 v,h,dc,ddl,ddr,vr,hd,vl,hu: 18% 25% 19%  5%  6%  5%  7%  6%  8%\n",
      "[libx264 @ 000001e411360880] i4 v,h,dc,ddl,ddr,vr,hd,vl,hu: 23% 31% 10%  5%  7%  6%  6%  5%  6%\n",
      "[libx264 @ 000001e411360880] i8c dc,h,v,p: 48% 25% 21%  7%\n",
      "[libx264 @ 000001e411360880] Weighted P-Frames: Y:0.0% UV:0.0%\n",
      "[libx264 @ 000001e411360880] ref P L0: 77.9% 22.1%\n",
      "[libx264 @ 000001e411360880] ref B L0: 89.3% 10.7%\n",
      "[libx264 @ 000001e411360880] ref B L1: 97.9%  2.1%\n",
      "[libx264 @ 000001e411360880] kb/s:614.48\n",
      "[aac @ 000001e4136c9d00] Qavg: 7103.682\n"
     ]
    }
   ],
   "source": [
    "input_path = r\"D:\\Akash\\Work\\AI\\Datasets\\v360\\_video\"\n",
    "output_path = r\"\\\\10.0.20.60\\share\\AI\\data\\_test_data\\評価データ作成_202501\\定性評価\\fiftyone\\samples\"\n",
    "\n",
    "v360_name = [\"v360_test1\", \"v360_test2\", \"v360_test3\", \"v360_test4\", \"v360_test5\", \"v360_test6\", \"v360_test7\", \"v360_test8\", \"v360_test9\", \"v360_test10\", \"v360_test11\", \"v360_test12\", \"v360_test13\"]\n",
    "quad_name = [\"leftdown\", \"rightdown\", \"leftup\", \"righttup\"]\n",
    "\n",
    "v360 = 2\n",
    "quad = 2\n",
    "start_time = \"00:02:03\"\n",
    "end_time = \"00:02:06\"\n",
    "\n",
    "!ffmpeg -ss {start_time} -to {end_time} -i {input_path}/{v360_name[v360]}/{quad_name[quad]}.mp4 -c:v libx264 -crf 23 -preset fast -c:a aac -b:a 128k {output_path}/{v360_name[v360]}_{quad_name[quad]}_{start_time.replace(\":\", \"\")}_{end_time.replace(\":\", \"\")}.mp4"
   ]
  }
 ],
 "metadata": {
  "kernelspec": {
   "display_name": "evaluation",
   "language": "python",
   "name": "python3"
  },
  "language_info": {
   "codemirror_mode": {
    "name": "ipython",
    "version": 3
   },
   "file_extension": ".py",
   "mimetype": "text/x-python",
   "name": "python",
   "nbconvert_exporter": "python",
   "pygments_lexer": "ipython3",
   "version": "3.8.10"
  }
 },
 "nbformat": 4,
 "nbformat_minor": 2
}
